{
  "asset": {
    "generator": "Khronos glTF Blender I/O v1.8.19",
    "version": "2.0"
  },
  "extensionsUsed": ["KHR_materials_transmission"],
  "scene": 0,
  "scenes": [
    {
      "name": "Scene",
      "nodes": [1]
    }
  ],
  "nodes": [
    {
      "mesh": 0,
      "name": "Image",
      "rotation": [0.7071068286895752, 0, 0, 0.7071067094802856],
      "scale": [1, 0.25, 1],
      "translation": [0, 1.5999996662139893, 0.0070311762392520905]
    },
    {
      "children": [0],
      "mesh": 1,
      "name": "Support"
    }
  ],
  "materials": [
    {
      "doubleSided": true,
      "name": "Image",
      "pbrMetallicRoughness": {
        "baseColorTexture": {
          "index": 0
        },
        "metallicFactor": 0,
        "roughnessFactor": 0
      }
    },
    {
      "doubleSided": true,
      "name": "Mat\u00e9riau carte",
      "pbrMetallicRoughness": {
        "metallicFactor": 0,
        "roughnessFactor": 0.5
      }
    },
    {
      "doubleSided": true,
      "extensions": {
        "KHR_materials_transmission": {
          "transmissionFactor": 1
        }
      },
      "name": "Verre",
      "pbrMetallicRoughness": {
        "metallicFactor": 0,
        "roughnessFactor": 0.4000000059604645
      }
    }
  ],
  "meshes": [
    {
      "name": "Plane.003",
      "primitives": [
        {
          "attributes": {
            "POSITION": 0,
            "NORMAL": 1,
            "TEXCOORD_0": 2
          },
          "indices": 3,
          "material": 0
        },
        {
          "attributes": {
            "POSITION": 4,
            "NORMAL": 5,
            "TEXCOORD_0": 6
          },
          "indices": 7,
          "material": 1
        }
      ]
    },
    {
      "name": "Plane",
      "primitives": [
        {
          "attributes": {
            "POSITION": 8,
            "NORMAL": 9,
            "TEXCOORD_0": 10
          },
          "indices": 11,
          "material": 2
        }
      ]
    }
  ],
  "textures": [
    {
      "sampler": 0,
      "source": 0
    }
  ],
  "images": [
    {
      "bufferView": 4,
      "mimeType": "image/jpeg",
      "name": "69277867_10158029133954305_2957802633676455936_o"
    }
  ],
  "accessors": [
    {
      "bufferView": 0,
      "componentType": 5126,
      "count": 124,
      "max": [0.8633444309234619, -0.021874316036701202, 1.3412730693817139],
      "min": [-0.8633444309234619, -0.021874407306313515, -1],
      "type": "VEC3"
    },
    {
      "bufferView": 1,
      "componentType": 5126,
      "count": 124,
      "type": "VEC3"
    },
    {
      "bufferView": 2,
      "componentType": 5126,
      "count": 124,
      "type": "VEC2"
    },
    {
      "bufferView": 3,
      "componentType": 5123,
      "count": 366,
      "type": "SCALAR"
    },
    {
      "bufferView": 5,
      "componentType": 5126,
      "count": 536,
      "max": [0.8633444309234619, -0.021874316036701202, 1.3412730693817139],
      "min": [-0.8633444309234619, -0.028124408796429634, -1],
      "type": "VEC3"
    },
    {
      "bufferView": 6,
      "componentType": 5126,
      "count": 536,
      "type": "VEC3"
    },
    {
      "bufferView": 7,
      "componentType": 5126,
      "count": 536,
      "type": "VEC2"
    },
    {
      "bufferView": 8,
      "componentType": 5123,
      "count": 1110,
      "type": "SCALAR"
    },
    {
      "bufferView": 9,
      "componentType": 5126,
      "count": 35692,
      "max": [1.1800000667572021, 3.1999998092651367, 0.019261803478002548],
      "min": [-1.1800000667572021, 0, -0.06926126778125763],
      "type": "VEC3"
    },
    {
      "bufferView": 10,
      "componentType": 5126,
      "count": 35692,
      "type": "VEC3"
    },
    {
      "bufferView": 11,
      "componentType": 5126,
      "count": 35692,
      "type": "VEC2"
    },
    {
      "bufferView": 12,
      "componentType": 5123,
      "count": 59172,
      "type": "SCALAR"
    }
  ],
  "bufferViews": [
    {
      "buffer": 0,
      "byteLength": 1488,
      "byteOffset": 0
    },
    {
      "buffer": 0,
      "byteLength": 1488,
      "byteOffset": 1488
    },
    {
      "buffer": 0,
      "byteLength": 992,
      "byteOffset": 2976
    },
    {
      "buffer": 0,
      "byteLength": 732,
      "byteOffset": 3968
    },
    {
      "buffer": 0,
      "byteLength": 380019,
      "byteOffset": 4700
    },
    {
      "buffer": 0,
      "byteLength": 6432,
      "byteOffset": 384720
    },
    {
      "buffer": 0,
      "byteLength": 6432,
      "byteOffset": 391152
    },
    {
      "buffer": 0,
      "byteLength": 4288,
      "byteOffset": 397584
    },
    {
      "buffer": 0,
      "byteLength": 2220,
      "byteOffset": 401872
    },
    {
      "buffer": 0,
      "byteLength": 428304,
      "byteOffset": 404092
    },
    {
      "buffer": 0,
      "byteLength": 428304,
      "byteOffset": 832396
    },
    {
      "buffer": 0,
      "byteLength": 285536,
      "byteOffset": 1260700
    },
    {
      "buffer": 0,
      "byteLength": 118344,
      "byteOffset": 1546236
    }
  ],
  "samplers": [
    {
      "magFilter": 9729,
      "minFilter": 9987
    }
  ],
  "buffers": [
    {
      "byteLength": 1664580,
      "uri": "data:application/octet-stream;base64,"
    }
  ]
}
