<svg xmlns="http://www.w3.org/2000/svg" viewBox="0 0 80 80" width="80" height="80" preserveAspectRatio="xMidYMid meet" style="width: 100%; height: 100%; transform: translate3d(0px, 0px, 0px)">
    <defs>
        <clipPath id="__lottie_element_8">
            <rect width="80" height="80" x="0" y="0"></rect>
        </clipPath>
    </defs>
    <g clip-path="url(#__lottie_element_8)">
        <g transform="matrix(1,0,0,1,15,11.141000747680664)" opacity="0.5" style="display: block">
            <g opacity="1" transform="matrix(1,0,0,1,27.92300033569336,27.750999450683594)">
                <path stroke-linecap="butt" stroke-linejoin="miter" fill-opacity="0" stroke-miterlimit="10" stroke="rgb(63,149,248)" stroke-opacity="1" stroke-width="4" d=" M-24.305999755859375,-11.854999542236328 C-26.674999237060547,-15.944000244140625 -27.111000061035156,-19.025999069213867 -24.617000579833984,-23.016000747680664 C-22.12299919128418,-27.006000518798828 -15.20199966430664,-26.382999420166016 -15.20199966430664,-26.382999420166016 C-15.20199966430664,-26.382999420166016 7.493000030517578,-26.382999420166016 13.914999961853027,-26.382999420166016 C20.336999893188477,-26.382999420166016 21.95800018310547,-18.96299934387207 21.95800018310547,-18.96299934387207 C21.95800018310547,-18.96299934387207 23.01799964904785,-9.050000190734863 23.642000198364258,-3.063999891281128 C24.266000747680664,2.921999931335449 20.024999618530273,5.290999889373779 20.024999618530273,5.290999889373779 C20.024999618530273,5.290999889373779 10.486000061035156,10.777999877929688 2.193000078201294,15.640999794006348 C-6.098999977111816,20.503999710083008 -10.651000022888184,11.713000297546387 -10.651000022888184,11.713000297546387 C-10.651000022888184,11.713000297546387 -24.305999755859375,-11.854999542236328 -24.305999755859375,-11.854999542236328z"></path>
            </g>
        </g>
    </g>
</svg>