<svg xmlns:xlink="http://www.w3.org/1999/xlink" width="18" height="18" viewBox="0 0 18 18" fill="none" xmlns="http://www.w3.org/2000/svg">
<path d="M3.62342 16.12C3.73904 16.3975 3.62342 16.6981 3.36904 16.8137C3.06841 16.9525 2.05091 16.9525 1.84278 16.5362C1.49591 15.8425 1.38028 15.5419 1.17216 15.01L1.14903 14.9637C0.964032 14.4319 1.05653 14.8019 0.802156 13.9694C0.709656 13.345 1.31091 12.975 1.14903 12.3737C0.848406 11.1943 0.709656 10.1306 0.709656 9.22872C0.709656 6.84683 1.68091 4.6962 3.23029 3.14682C6.53718 -0.160065 11.4628 -0.160065 14.7697 3.14682C16.3191 4.6962 17.2672 6.84683 17.2903 9.22872C17.2903 10.1306 17.1516 11.1943 16.851 12.3737C16.6891 12.975 17.2903 13.345 17.1978 13.9694C16.9435 14.8019 17.036 14.4319 16.8278 14.9637V15.01C16.6197 15.5419 16.5041 15.8425 16.1572 16.5362C15.926 16.9525 14.9316 16.9525 14.631 16.8137C14.3766 16.6981 14.261 16.3975 14.3766 16.12C15.0472 14.6169 15.5328 13.2987 15.8335 12.1656C16.111 11.0325 16.2497 10.0612 16.2497 9.22872C16.2497 7.14746 15.3941 5.2512 14.0297 3.88682C11.1391 0.996189 6.86093 0.996189 3.97029 3.88682C2.60591 5.2512 1.75028 7.14746 1.75028 9.22872C1.75028 10.0612 1.86591 11.0325 2.16654 12.1656C2.46716 13.2987 2.92966 14.6169 3.62342 16.12ZM11.6016 15.9581C11.4166 16.5131 11.7172 17.0912 12.2491 17.2762C12.8041 17.4612 13.3822 17.1837 13.5672 16.6287L15.3478 11.4487C15.5328 10.8937 15.2553 10.3156 14.7003 10.1306C14.1685 9.9456 13.5672 10.2231 13.3822 10.7781L11.6016 15.9581ZM6.39843 15.9581C6.58343 16.5131 6.2828 17.0912 5.7278 17.2762C5.19592 17.4612 4.59467 17.1837 4.40967 16.6287L2.62904 11.4487C2.44404 10.8937 2.74466 10.3156 3.29966 10.1306C3.83154 9.9456 4.43279 10.2231 4.61779 10.7781L6.39843 15.9581Z" fill="#3F95F8"></path>
</svg>