<svg xmlns:xlink="http://www.w3.org/1999/xlink" xmlns="http://www.w3.org/2000/svg" class="LikeButton-module__icon--ff2k1" viewBox="0 0 20 19" width="41"  height="41" ><path d="M7.38783 9.69471C7.44516 11.793 7.98118 14.4224 8.55347 15.8652C10.2208 15.8044 14.8037 15.1084 15.7828 14.7979C15.8198 14.7861 15.8543 14.7776 15.9088 14.763C16.0926 14.716 16.1438 14.6989 16.2071 14.6649C16.4109 14.555 16.5024 14.2834 16.3409 13.4899C16.3007 13.293 16.3635 13.0858 16.5117 12.9457C16.9789 12.4981 16.9933 12.0982 16.6683 11.4054C16.5199 11.0911 16.6758 10.7167 17.001 10.5994C17.1904 10.5305 17.2607 9.57779 17.0385 9.4396C16.7405 9.25663 16.668 8.85559 16.8814 8.57967C16.9707 8.4639 17.05 8.07768 17.0061 7.80065C16.9239 7.28159 16.7452 7.1156 16.2298 7.10755C15.8735 7.10419 15.4738 7.12864 15.0366 7.17996C14.3117 7.26488 13.5368 7.41152 12.782 7.59085C12.5977 7.63499 12.4309 7.67636 12.2815 7.71496C12.1925 7.73802 12.1322 7.75356 12.104 7.76401C11.8753 7.83012 11.6264 7.74996 11.4804 7.56385C11.4352 7.50523 11.3974 7.43649 11.367 7.35761C11.2398 7.0071 11.2084 6.31856 11.3285 5.09488C11.4397 3.94734 10.5126 2.98217 9.54103 2.71756C9.40349 2.67956 9.32859 2.6974 9.27093 2.80518C9.32555 3.07453 9.37234 3.3511 9.41053 3.61109C9.44225 3.83026 9.46491 4.02994 9.47712 4.20138C9.54609 5.27854 9.44141 5.91987 9.02007 7.18529C8.87033 7.63647 8.60778 8.11149 8.26451 8.60528C8.05483 8.90453 7.82872 9.19443 7.59647 9.46437C7.51516 9.55497 7.44659 9.63159 7.38783 9.69471ZM6.91755 8.42403C7.04747 8.26296 7.17065 8.09698 7.28753 7.92901C7.57236 7.51921 7.78369 7.13599 7.89266 6.80486C8.26725 5.67838 8.34744 5.18441 8.28976 4.27286C8.28018 4.13687 8.26214 3.96635 8.23503 3.77635C8.20054 3.53968 8.15406 3.28399 8.10513 3.03167C8.08036 2.91304 8.06267 2.82019 8.0519 2.77107C8.02759 2.65535 8.03536 2.53455 8.08043 2.42279C8.12551 2.31103 8.20479 2.16993 8.32828 2.02483C8.68357 1.60686 9.20994 1.40093 9.84393 1.57254C11.3149 1.97029 12.6761 3.3928 12.4969 5.20576C12.4451 5.72811 12.4238 6.141 12.4286 6.45412C12.4514 6.44751 12.4777 6.44335 12.5006 6.43674C13.2957 6.24803 14.1139 6.09154 14.8917 6.00122C15.3761 5.94543 15.8229 5.91651 16.233 5.92031C17.3469 5.93221 17.9959 6.53788 18.1654 7.60808C18.2277 8.00175 18.1794 8.45181 18.0502 8.825C18.5052 9.52716 18.4365 10.6979 17.9091 11.3314C18.1918 12.1535 18.1185 12.8796 17.547 13.556C17.7009 14.6406 17.4209 15.3456 16.7599 15.7014C16.658 15.7564 16.5542 15.7997 16.4404 15.8357C16.3693 15.8589 16.3606 15.8603 16.2059 15.9027C16.1713 15.9111 16.1514 15.9173 16.1373 15.9225C15.0954 16.2519 10.7914 16.9157 8.81879 17.0308C8.76956 17.1164 8.69807 17.1934 8.60785 17.2466C7.11635 18.1345 6.57306 18.2713 3.9716 18.3605C3.73953 18.3674 3.52167 18.2375 3.41996 18.0294C2.30744 15.7425 1.97939 13.0862 2.00973 9.44647C2.0111 9.09652 2.31519 8.82715 2.66194 8.8649C4.03636 9.0119 4.90752 8.9068 6.63497 8.43292C6.73565 8.408 6.83128 8.40781 6.91755 8.42403ZM3.19713 10.0924C3.20868 13.0529 3.50368 15.293 4.32682 17.1684C6.10927 17.0983 6.63769 16.9996 7.53966 16.5041C6.87661 14.9411 6.27448 12.0831 6.20676 9.76818C5.04099 10.0515 4.20144 10.1486 3.19713 10.0924ZM5.63036 16.4149C5.16087 16.4892 4.75817 16.287 4.61637 15.6936C4.47457 15.1003 4.95544 14.7581 5.43659 14.6819C5.92067 14.6052 6.20248 14.9313 6.36602 15.4165C6.52957 15.9018 6.09985 16.3405 5.63036 16.4149Z" fill="#FFFFFF"></path></svg>