<svg xmlns:xlink="http://www.w3.org/1999/xlink" width="12" height="13" viewBox="0 0 12 13" fill="none" xmlns="http://www.w3.org/2000/svg">
<path fill-rule="evenodd" clip-rule="evenodd" d="M4.46131 5.96438L1.60531 8.82038C1.12131 9.30438 1.12131 10.0924 1.60531 10.5777L2.04398 11.0164C2.51464 11.487 3.33331 11.4857 3.80131 11.0164L5.15064 9.66705C5.39331 9.42438 5.78664 9.42438 6.02931 9.66705C6.27198 9.90971 6.27198 10.303 6.02931 10.5457L4.68131 11.895C4.21198 12.3644 3.58798 12.623 2.92398 12.623C2.25998 12.623 1.63598 12.3644 1.16664 11.8937L0.727977 11.455C-0.241357 10.4857 -0.241357 8.90838 0.727977 7.94038L3.58398 5.08438C4.05331 4.61505 4.67731 4.35638 5.34131 4.35638C6.00531 4.35638 6.62931 4.61505 7.09864 5.08571L7.53731 5.52438C7.77998 5.76705 7.77998 6.16038 7.53731 6.40305C7.29464 6.64571 6.90131 6.64571 6.65864 6.40305L6.21998 5.96438C5.74931 5.49505 4.93198 5.49505 4.46131 5.96438ZM8.41598 8.16171C7.94664 8.62971 7.32264 8.88971 6.65864 8.88971C5.99464 8.88971 5.37064 8.63105 4.90131 8.16038C4.65864 7.91771 4.65864 7.52571 4.90131 7.28171C5.14398 7.03905 5.53731 7.03905 5.77998 7.28171C6.24931 7.75105 7.06798 7.75105 7.53598 7.28171L10.392 4.42705C10.6266 4.19238 10.756 3.88038 10.756 3.54838C10.756 3.21638 10.6266 2.90438 10.392 2.66971L9.95331 2.23105C9.71864 1.99505 9.40664 1.86571 9.07464 1.86571C8.74264 1.86571 8.43064 1.99505 8.19598 2.23105L6.96264 3.46438C6.71998 3.70838 6.32664 3.70838 6.08398 3.46438C5.84131 3.22171 5.84131 2.82838 6.08398 2.58571L7.31731 1.35238C7.78664 0.881714 8.41198 0.623047 9.07464 0.623047C9.73864 0.623047 10.3626 0.881714 10.832 1.35105L11.2706 1.79105C11.74 2.26038 11.9986 2.88438 11.9986 3.54838C11.9986 4.21238 11.7413 4.83638 11.2706 5.30571L8.41598 8.16171Z" fill="#3F95F8"></path>
</svg>