<svg xmlns:xlink="http://www.w3.org/1999/xlink" xmlns="http://www.w3.org/2000/svg" viewBox="0 0 80 80" width="80" height="80" preserveAspectRatio="xMidYMid meet" style="width: 100%; height: 100%; transform: translate3d(0px, 0px, 0px);"><defs><clipPath id="__lottie_element_8"><rect width="80" height="80" x="0" y="0"></rect></clipPath></defs><g clip-path="url(#__lottie_element_8)"><g transform="matrix(1,0,0,1,15,11.141000747680664)" opacity="0.5" style="display: block;"><g opacity="1" transform="matrix(1,0,0,1,27.92300033569336,27.750999450683594)"><path stroke-linecap="butt" stroke-linejoin="miter" fill-opacity="0" stroke-miterlimit="10" stroke="#3F95F8" stroke-opacity="1" stroke-width="4px" d=" M-16.238000869750977,27.966999053955078 C-26.023000717163086,27.966999053955078 -25.92300033569336,18.273000717163086 -25.92300033569336,18.273000717163086 C-25.92300033569336,18.273000717163086 -25.92300033569336,-15.253999710083008 -25.92300033569336,-15.253999710083008 C-25.92300033569336,-19.867000579833984 -23.176000595092773,-22.790000915527344 -23.176000595092773,-22.790000915527344 C-18.35099983215332,-27.966999053955078 -11.906000137329102,-24.780000686645508 -11.906000137329102,-24.780000686645508 C-11.906000137329102,-24.780000686645508 13.185999870300293,-10.279000282287598 19.604999542236328,-6.633999824523926 C26.023000717163086,-2.989000082015991 23.645999908447266,4.327000141143799 23.645999908447266,4.327000141143799 C23.645999908447266,4.327000141143799 18.33799934387207,16.82200050354004 15.722000122070312,22.368000030517578 C13.107000350952148,27.915000915527344 7.296999931335449,27.966999053955078 7.296999931335449,27.966999053955078 C7.296999931335449,27.966999053955078 -16.238000869750977,27.966999053955078 -16.238000869750977,27.966999053955078z"></path></g></g></g></svg>