<svg xmlns:xlink="http://www.w3.org/1999/xlink" xmlns="http://www.w3.org/2000/svg" viewBox="0 0 80 80" width="80" height="80" preserveAspectRatio="xMidYMid meet" style="width: 100%; height: 100%; transform: translate3d(0px, 0px, 0px);"><defs><clipPath id="__lottie_element_8"><rect width="80" height="80" x="0" y="0"></rect></clipPath></defs><g clip-path="url(#__lottie_element_8)"><g transform="matrix(1,0,0,1,15,11.141000747680664)" opacity="0.5" style="display: block;"><g opacity="1" transform="matrix(1,0,0,1,27.92300033569336,27.750999450683594)"><path stroke-linecap="butt" stroke-linejoin="miter" fill-opacity="0" stroke-miterlimit="10" stroke="#3F95F8" stroke-opacity="1" stroke-width="4px" d=" M-11.189000129699707,15.062999725341797 C-11.189000129699707,15.062999725341797 -22.47800064086914,-4.389999866485596 -24.815000534057617,-8.470999717712402 C-27.152000427246094,-12.552000045776367 -27.054000854492188,-14.857000350952148 -27.054000854492188,-14.857000350952148 C-27.054000854492188,-22.493000030517578 -18.98900032043457,-23.841999053955078 -18.98900032043457,-23.841999053955078 C-18.98900032043457,-23.841999053955078 3.2279999256134033,-26.277999877929688 13.267000198364258,-27.29800033569336 C23.305999755859375,-28.31800079345703 22.944000244140625,-18.312999725341797 22.944000244140625,-18.312999725341797 C22.944000244140625,-18.312999725341797 22.878999710083008,5.02400016784668 22.780000686645508,12.791999816894531 C22.680999755859375,20.559999465942383 14.222000122070312,21.316999435424805 14.222000122070312,21.316999435424805 C14.222000122070312,21.316999435424805 2.8329999446868896,21.18600082397461 -2.8940000534057617,21.086999893188477 C-8.621000289916992,20.988000869750977 -11.189000129699707,15.062999725341797 -11.189000129699707,15.062999725341797z"></path></g></g></g></svg>