<svg xmlns:xlink="http://www.w3.org/1999/xlink" width="58" height="46" viewBox="0 0 58 46" fill="none" xmlns="http://www.w3.org/2000/svg"><path d="M29.9885 2.3335C29.9885 1.22893 30.884 0.333496 31.9885 0.333496H55.9885C57.0931 0.333496 57.9885 1.22893 57.9885 2.3335V43.3335C57.9885 44.4381 57.0931 45.3335 55.9885 45.3335H31.9885C30.884 45.3335 29.9885 44.4381 29.9885 43.3335V2.3335Z" fill="#FFFFFF"></path><path fill-rule="evenodd" clip-rule="evenodd" d="M1.5 19.3335L1.5 43.3335C1.5 43.8858 1.94772 44.3335 2.5 44.3335H43.5C44.0523 44.3335 44.5 43.8858 44.5 43.3335V19.3335C44.5 18.7812 44.0523 18.3335 43.5 18.3335L2.5 18.3335C1.94772 18.3335 1.5 18.7812 1.5 19.3335ZM0.5 43.3335C0.5 44.4381 1.39543 45.3335 2.5 45.3335H43.5C44.6046 45.3335 45.5 44.4381 45.5 43.3335V19.3335C45.5 18.2289 44.6046 17.3335 43.5 17.3335L2.5 17.3335C1.39543 17.3335 0.5 18.2289 0.5 19.3335L0.5 43.3335Z" fill="#FFFFFF"></path><path d="M45.9885 39.3335C45.9885 40.4381 45.0931 41.3335 43.9885 41.3335C42.884 41.3335 41.9885 40.4381 41.9885 39.3335C41.9885 38.2289 42.884 37.3335 43.9885 37.3335C45.0931 37.3335 45.9885 38.2289 45.9885 39.3335Z" fill="#F1F2F2"></path><path fill-rule="evenodd" clip-rule="evenodd" d="M57.9885 6.34863H30.0251V5.34863H57.9885V6.34863Z" fill="#F1F2F2"></path><path fill-rule="evenodd" clip-rule="evenodd" d="M20.9232 3.87342C21.1185 3.67815 21.4351 3.67815 21.6303 3.87342L23.7071 5.9502L21.6303 8.02697C21.4351 8.22224 21.1185 8.22224 20.9232 8.02697C20.728 7.83171 20.728 7.51513 20.9232 7.31987L22.2929 5.9502L20.9232 4.58052C20.728 4.38526 20.728 4.06868 20.9232 3.87342Z" fill="#3F95F8"></path><path fill-rule="evenodd" clip-rule="evenodd" d="M16.7839 8.76358C15.8186 10.0605 15.6936 11.6311 15.8811 12.6765L14.8968 12.853C14.673 11.6052 14.8136 9.73603 15.9817 8.16654C17.1664 6.57464 19.3364 5.38525 22.9798 5.38525V6.38525C19.5635 6.38525 17.7324 7.48903 16.7839 8.76358Z" fill="#3F95F8"></path><path fill-rule="evenodd" clip-rule="evenodd" d="M17.5204 10.7657C17.7156 10.961 17.7156 11.2776 17.5204 11.4729L15.4436 13.5496L13.3668 11.4729C13.1716 11.2776 13.1716 10.961 13.3668 10.7657C13.5621 10.5705 13.8787 10.5705 14.0739 10.7657L15.4436 12.1354L16.8133 10.7657C17.0085 10.5705 17.3251 10.5705 17.5204 10.7657Z" fill="#3F95F8"></path></svg>