<svg xmlns:xlink="http://www.w3.org/1999/xlink" width="16" height="12" viewBox="0 0 16 12" fill="none" xmlns="http://www.w3.org/2000/svg">
<path d="M15.4634 1.40488C14.9366 1.63902 14.3513 1.81463 13.7074 1.87317C14.3513 1.52195 14.8195 0.878049 15.0537 0.17561C14.4683 0.526829 13.8244 0.760976 13.122 0.936585C12.5366 0.35122 11.7756 0 10.8976 0C9.20004 0 7.85369 1.34634 7.85369 3.0439C7.85369 3.27805 7.85369 3.5122 7.91223 3.74634C5.39516 3.62927 3.11223 2.4 1.59028 0.526829C1.35613 0.995122 1.18052 1.52195 1.18052 2.04878C1.18052 3.10244 1.70735 4.03902 2.52687 4.56585C2.00004 4.56585 1.59028 4.39024 1.12199 4.21463C1.12199 4.21463 1.12199 4.21463 1.12199 4.27317C1.12199 5.73659 2.17565 6.96585 3.58052 7.25854C3.34638 7.31707 3.05369 7.37561 2.76101 7.37561C2.5854 7.37561 2.35126 7.37561 2.17565 7.31707C2.5854 8.54634 3.6976 9.42439 5.04394 9.42439C3.99028 10.2439 2.70247 10.7122 1.23906 10.7122C1.00491 10.7122 0.770767 10.7122 0.536621 10.6537C1.88296 11.5317 3.46345 12 5.21955 12C10.8391 12 13.883 7.37561 13.883 3.33659C13.883 3.21951 13.883 3.10244 13.883 2.92683C14.5269 2.57561 15.0537 1.99024 15.4634 1.40488Z" fill="#FFFFFF"></path>
</svg>